<svg xmlns="http://www.w3.org/2000/svg" xmlns:xlink="http://www.w3.org/1999/xlink" version="1.1" viewBox="0 0 526.399 655">
<defs>
<linearGradient id="base_circle_gr" x1="0" y1="30.533" x2="103.706" y2="30.533" gradientUnits="userSpaceOnUse">
<stop offset="0" stop-color="#62c6ca"/>
<stop offset=".182" stop-color="#61c1c8"/>
<stop offset=".397" stop-color="#5eb2c4"/>
<stop offset=".628" stop-color="#599bbd"/>
<stop offset=".869" stop-color="#537ab4"/>
<stop offset="1" stop-color="#4f65ae"/>
</linearGradient>
<symbol id="base_circle" viewBox="0 0 103.706 61.066">
<path d="M51.854,61.066c-13.736,0-26.649-3.088-36.362-8.697C5.503,46.601,0,38.844,0,30.525S5.503,14.449,15.492,8.681c20.049-11.575,52.669-11.574,72.72.001,9.991,5.768,15.494,13.527,15.494,21.844s-5.503,16.076-15.492,21.843c-9.711,5.609-22.625,8.697-36.359,8.697ZM51.852,1.879c-12.823,0-25.644,2.817-35.406,8.452C7.07,15.745,1.907,22.916,1.907,30.525s5.163,14.78,14.539,20.193c9.427,5.443,22.003,8.441,35.408,8.441s25.98-2.998,35.406-8.441c9.375-5.412,14.539-12.582,14.539-20.192s-5.163-14.78-14.54-20.193C77.497,4.698,64.674,1.879,51.852,1.879Z" fill="url(#base_circle_gr)"/>
</symbol>
<linearGradient id="square_side_gr" x1="14683.129" y1="9.891" x2="14618.845" y2="61.44" gradientTransform="translate(14696.644) rotate(-180) scale(1 -1)" gradientUnits="userSpaceOnUse">
<stop offset="0" stop-color="#adc9e8"/>
<stop offset=".023" stop-color="#a9c5e6"/>
<stop offset=".294" stop-color="#88a4d2"/>
<stop offset=".554" stop-color="#718dc4"/>
<stop offset=".795" stop-color="#627ebb"/>
<stop offset="1" stop-color="#5e7ab9"/>
</linearGradient>
<symbol id="circle_block" viewBox="0 0 92.644 63.765">
<g>
<path d="M0,37.02v-10.276h3.552c2.261-3.139,5.593-6.081,10.016-8.633,18.09-10.444,47.419-10.444,65.509,0,4.422,2.553,7.755,5.494,10.016,8.633h3.551v10.277h0c0,6.844-4.522,13.689-13.568,18.911-18.09,10.444-47.419,10.444-65.509,0C4.521,50.71,0,43.865,0,37.02Z" fill="url(#square_side_gr)"/>
<path d="M79.077,45.654c-18.09,10.444-47.419,10.444-65.509,0-18.09-10.444-18.091-27.377-.001-37.822C31.657-2.611,60.986-2.611,79.076,7.833c18.091,10.444,18.091,27.378.001,37.822Z" fill="#c1daf2"/>
<path d="M75.754,42.789c-16.255,8.861-42.609,8.861-58.864,0-16.255-8.862-16.256-23.229-.001-32.091,16.255-8.861,42.609-8.861,58.864,0,16.256,8.862,16.256,23.229.001,32.091Z" fill="#224487"/>
<path d="M73.966,41.222c-15.267,7.996-40.019,7.996-55.287,0-15.267-7.996-15.268-20.96,0-28.957,15.267-7.996,40.019-7.996,55.287,0,15.268,7.996,15.268,20.96,0,28.957Z" fill="#445fa8"/>
</g>
</symbol>
<symbol id="circle_shadow" viewBox="0 0 75.647 43.676">
<path d="M64.57,37.279c-14.772,8.529-38.719,8.529-53.491,0-14.772-8.528-14.772-22.355-.001-30.883,14.771-8.529,38.719-8.528,53.491,0,14.771,8.529,14.771,22.355.001,30.883Z" fill="#7e89be"/>
</symbol>
</defs>
<use width="103.706" height="61.066" transform="translate(0 275.292) scale(5.076)" xlink:href="#base_circle"/>
<use width="75.647" height="43.676" transform="translate(74.625 320.65) scale(5.076)" xlink:href="#circle_shadow"/>
<use width="92.644" height="63.765" transform="translate(31.488 159.999) scale(5.076)" xlink:href="#circle_block"/>
<use width="92.644" height="63.765" transform="translate(31.488 79.999) scale(5.076)" xlink:href="#circle_block"/>
<use width="92.644" height="63.765" transform="translate(31.488) scale(5.076)" xlink:href="#circle_block"/>
<path d="M365.116,73.815c-54.798-31.638-143.322-31.823-197.724-.415-54.401,31.409-54.08,82.518.718,114.156,54.798,31.638,143.322,31.823,197.724.415,54.401-31.409,54.08-82.518-.718-114.156ZM180.519,80.979c11.987-6.92,26.387-12.291,42.259-15.761l-70.625,88.19c-14.832-24.574-5.504-52.874,28.366-72.429ZM181.143,180.032c-8.472-4.891-15.426-10.306-20.785-16.025l100.281-28.109-45.499,56.85-.526,1.009c-12.113-3.406-23.472-7.952-33.471-13.725ZM318.526,114.374c5.57,2.865,10.756,5.247,10.756,5.247,5.186,2.382,11.319-1.864,6.436-4.421,0,0-15.028-7.364-24.034-12.563-8.472-4.892-21.532-13.744-21.532-13.744-4.429-2.819-12.01.941-7.657,3.804,2.654,1.925,5.404,3.805,8.248,5.637l-23.089,28.842-74.922,21.488,61.147-71.613c5.494,2.909,10.756,5.247,10.756,5.247,5.186,2.382,11.395-1.82,6.436-4.421,0,0-15.028-7.364-24.034-12.563l-5.343-3.26c39.939-4.688,81.429,2.56,110.389,19.286,21.57,12.412,34.325,29.021,35.73,46.527l-1.069-.617c-8.548-4.935-21.775-4.173-29.655.377-6.971,4.025-8.912,9.816-11.608,16.484-2.402,5.088-5.86,11.491-16.467,17.615-7.35,4.243-18.66,7.513-34.144,12.222l-37.115,11.469,60.77-71.044ZM236.011,198.324l101.8-28.369c17.704-4.135,33.297-10.775,45.354-19.311-5.482,10.921-15.608,21.173-30.459,29.748-30.442,17.571-74.89,24.401-116.695,17.932Z" fill="#fff"/>
</svg>