<svg xmlns="http://www.w3.org/2000/svg" xmlns:xlink="http://www.w3.org/1999/xlink" version="1.1" viewBox="0 0 526.399 500">
<defs>
<symbol id="app_symbol" viewBox="0 0 50.387 27.958">
<path d="M21.213,10.143c-.692.399-1.824.397-2.521-.006-.702-.405-.701-1.056-.01-1.455.695-.401,1.819-.4,2.521.005.697.402.704,1.055.009,1.456ZM28.873,8.687c.859.496,2.245.498,3.096.006.85-.491.845-1.289-.014-1.786-.856-.494-2.24-.497-3.09-.006-.851.491-.848,1.291.008,1.786ZM29.824,14.793c-1.411-.814-3.695-.821-5.095-.012-1.406.812-1.398,2.132.013,2.947,1.416.818,3.7.821,5.106.009,1.4-.809,1.392-2.125-.024-2.943ZM46.102,25.481c-5.75,3.32-15.102,3.298-20.886-.042-5.19-2.996-16.231-9.228-21.211-12.103-5.311-3.066-5.345-8.019-.069-11.065C8.837-.558,16.583-.741,21.914,1.705c5.262-2.417,12.968-2.206,17.869.624,4.438,2.563,5.158,6.453,2.15,9.42,1.475.411,2.862.967,4.091,1.677,5.784,3.34,5.822,8.739.076,12.056ZM25.856,6.002l.817.472c-.241.227-.408.468-.511.718h-1.154s.007,1.189.007,1.189h1.154c.106.249.28.497.52.723l-.811.468,1.461.844.811-.468c.392.139.819.238,1.254.3l.002.668,2.06.003-.004-.667c.431-.062.852-.156,1.244-.295l.817.472,1.45-.837-.817-.472c.238-.225.407-.471.514-.72l1.152.004-.008-1.188-1.152-.004c-.108-.251-.282-.497-.523-.723l.811-.468-1.461-.844-.811.468c-.391-.139-.818-.241-1.252-.302l-.004-.663-2.058-.004.004.663c-.435.06-.858.159-1.247.297l-.817-.472-1.45.837ZM23.664,10.874l-.666-.384c.194-.183.332-.382.417-.587l.94.003-.007-.969-.937-.002c-.088-.205-.231-.403-.425-.589l.664-.383-1.195-.69-.664.383c-.321-.112-.662-.193-1.017-.244l-.003-.541-1.678-.003.006.542c-.36.046-.699.129-1.016.241l-.666-.384-1.181.682.666.384c-.196.185-.34.381-.414.585h-.945s.009.967.009.967l.937.002c.088.205.229.402.422.587l-.658.38,1.195.69.659-.38c.322.112.665.194,1.019.245l.003.541,1.676.005v-.546c.348-.046.693-.126,1.013-.239l.666.384,1.181-.682ZM34.807,19.223l-1.349-.779c.394-.376.676-.774.849-1.192l1.896.004-.012-1.958-1.896-.004c-.178-.414-.466-.817-.866-1.193l1.339-.773-2.407-1.39-1.339.773c-.649-.23-1.347-.396-2.062-.497l-.009-1.096-3.394-.009.01,1.096c-.719.102-1.415.261-2.061.492l-1.349-.779-2.392,1.381,1.349.779c-.396.371-.676.774-.846,1.187l-1.902-.004.015,1.959,1.899.006c.176.413.466.814.861,1.19l-1.34.773,2.407,1.39,1.34-.774c.654.23,1.349.397,2.067.5l.007,1.095,3.391.007-.004-1.096c.722-.1,1.41-.261,2.058-.487l1.349.779,2.392-1.381Z" fill="#65cada"/>
</symbol>
<linearGradient id="base_circle_gr" x1="0" y1="30.533" x2="103.706" y2="30.533" gradientUnits="userSpaceOnUse">
<stop offset="0" stop-color="#62c6ca"/>
<stop offset=".182" stop-color="#61c1c8"/>
<stop offset=".397" stop-color="#5eb2c4"/>
<stop offset=".628" stop-color="#599bbd"/>
<stop offset=".869" stop-color="#537ab4"/>
<stop offset="1" stop-color="#4f65ae"/>
</linearGradient>
<symbol id="base_circle" viewBox="0 0 103.706 61.066">
<path d="M51.854,61.066c-13.736,0-26.649-3.088-36.362-8.697C5.503,46.601,0,38.844,0,30.525S5.503,14.449,15.492,8.681c20.049-11.575,52.669-11.574,72.72.001,9.991,5.768,15.494,13.527,15.494,21.844s-5.503,16.076-15.492,21.843c-9.711,5.609-22.625,8.697-36.359,8.697ZM51.852,1.879c-12.823,0-25.644,2.817-35.406,8.452C7.07,15.745,1.907,22.916,1.907,30.525s5.163,14.78,14.539,20.193c9.427,5.443,22.003,8.441,35.408,8.441s25.98-2.998,35.406-8.441c9.375-5.412,14.539-12.582,14.539-20.192s-5.163-14.78-14.54-20.193C77.497,4.698,64.674,1.879,51.852,1.879Z" fill="url(#base_circle_gr)"/>
</symbol>
<linearGradient id="square_side_gr" x1="14683.129" y1="9.891" x2="14618.845" y2="61.44" gradientTransform="translate(14696.644) rotate(-180) scale(1 -1)" gradientUnits="userSpaceOnUse">
<stop offset="0" stop-color="#adc9e8"/>
<stop offset=".023" stop-color="#a9c5e6"/>
<stop offset=".294" stop-color="#88a4d2"/>
<stop offset=".554" stop-color="#718dc4"/>
<stop offset=".795" stop-color="#627ebb"/>
<stop offset="1" stop-color="#5e7ab9"/>
</linearGradient>
<symbol id="circle_block" viewBox="0 0 92.644 63.765">
<g>
<path d="M0,37.02v-10.276h3.552c2.261-3.139,5.593-6.081,10.016-8.633,18.09-10.444,47.419-10.444,65.509,0,4.422,2.553,7.755,5.494,10.016,8.633h3.551v10.277h0c0,6.844-4.522,13.689-13.568,18.911-18.09,10.444-47.419,10.444-65.509,0C4.521,50.71,0,43.865,0,37.02Z" fill="url(#square_side_gr)"/>
<path d="M79.077,45.654c-18.09,10.444-47.419,10.444-65.509,0-18.09-10.444-18.091-27.377-.001-37.822C31.657-2.611,60.986-2.611,79.076,7.833c18.091,10.444,18.091,27.378.001,37.822Z" fill="#c1daf2"/>
<path d="M75.754,42.789c-16.255,8.861-42.609,8.861-58.864,0-16.255-8.862-16.256-23.229-.001-32.091,16.255-8.861,42.609-8.861,58.864,0,16.256,8.862,16.256,23.229.001,32.091Z" fill="#224487"/>
<path d="M73.966,41.222c-15.267,7.996-40.019,7.996-55.287,0-15.267-7.996-15.268-20.96,0-28.957,15.267-7.996,40.019-7.996,55.287,0,15.268,7.996,15.268,20.96,0,28.957Z" fill="#445fa8"/>
</g>
</symbol>
<symbol id="circle_shadow" viewBox="0 0 75.647 43.676">
<path d="M64.57,37.279c-14.772,8.529-38.719,8.529-53.491,0-14.772-8.528-14.772-22.355-.001-30.883,14.771-8.529,38.719-8.528,53.491,0,14.771,8.529,14.771,22.355.001,30.883Z" fill="#7e89be"/>
</symbol>
</defs>
<use width="103.706" height="61.066" transform="translate(0 115.293) scale(5.076)" xlink:href="#base_circle"/>
<use width="75.647" height="43.676" transform="translate(74.625 160.651) scale(5.076)" xlink:href="#circle_shadow"/>
<use width="92.644" height="63.765" transform="translate(31.488) scale(5.076)" xlink:href="#circle_block"/>
<use width="50.387" height="27.958" transform="translate(133.656 60.992) scale(5.076)" xlink:href="#app_symbol"/>
</svg>