<svg xmlns="http://www.w3.org/2000/svg" xmlns:xlink="http://www.w3.org/1999/xlink" version="1.1" viewBox="0 0 526.399 520">
<defs>
<linearGradient id="base_circle_gr" x1="0" y1="28.148" x2="97.002" y2="28.148" gradientUnits="userSpaceOnUse">
<stop offset="0" stop-color="#62c6ca"/>
<stop offset=".182" stop-color="#61c1c8"/>
<stop offset=".397" stop-color="#5eb2c4"/>
<stop offset=".628" stop-color="#599bbd"/>
<stop offset=".869" stop-color="#537ab4"/>
<stop offset="1" stop-color="#4f65ae"/>
</linearGradient>
<symbol id="square_base" viewBox="0 0 97.002 56.297">
<path d="M48.413,56.297c-.562,0-1.102-.117-1.514-.355L.706,29.273c-.456-.263-.706-.644-.706-1.072,0-.489.338-.964.927-1.304L46.676.483c1.023-.591,2.528-.648,3.427-.128l46.193,26.669c.455.263.706.644.706,1.072,0,.489-.338.964-.927,1.305l-45.749,26.413c-.553.319-1.249.483-1.913.483ZM47.243,55.345c.683.394,1.937.337,2.739-.128l45.749-26.413c.365-.211.583-.475.583-.708,0-.221-.196-.38-.362-.475L49.759.952c-.681-.394-1.936-.336-2.739.128L1.271,27.493c-.365.211-.583.476-.583.708,0,.221.196.38.361.475l46.193,26.67Z" fill="url(#base_circle_gr)"/>
</symbol>
<linearGradient id="square_side_gr" x1="19.989" y1="0" x2="19.989" y2="59.53" gradientUnits="userSpaceOnUse">
<stop offset="0" stop-color="#adc9e8"/>
<stop offset=".023" stop-color="#a9c5e6"/>
<stop offset=".294" stop-color="#88a4d2"/>
<stop offset=".554" stop-color="#718dc4"/>
<stop offset=".795" stop-color="#627ebb"/>
<stop offset="1" stop-color="#5e7ab9"/>
</linearGradient>
<symbol id="vertical_block" viewBox="0 0 39.535 59.61">
<g>
<path d="M38.363,17.822L7.774.161c-.327-.189-.623-.206-.837-.082L.443,3.853c.214-.124.51-.107.837.082l30.589,17.661c.649.375,1.175,1.285,1.173,2.031l-.1,35.149c-.001.371-.132.632-.343.754l6.494-3.774c.211-.123.342-.384.343-.754l.1-35.149c.002-.746-.523-1.656-1.173-2.031Z" fill="url(#square_side_gr)"/>
<path d="M31.869,21.595c.649.375,1.175,1.285,1.173,2.031l-.1,35.149c-.002.746-.531,1.048-1.18.673L1.173,41.788C.523,41.413-.002,40.503,0,39.757L.1,4.608c.002-.746.531-1.048,1.18-.673l30.589,17.661ZM31.182,55.999l.09-31.634c.002-.597-.418-1.325-.938-1.625L2.804,6.846c-.52-.3-.943-.059-.944.538l-.09,31.634c-.002.597.418,1.325.938,1.625l27.53,15.894c.52.3.943.059.944-.538" fill="#cbe3f6"/>
<path d="M29.751,23.352c.385.222.697.761.695,1.204l-.086,30.301c-.001.443-.315.621-.7.399L3.291,40.032c-.386-.223-.697-.761-.695-1.204l.086-30.301c.001-.443.314-.622.7-.399l26.37,15.225Z" fill="#3e57a7"/>
<path d="M30.334,22.74c.52.3.94,1.027.938,1.625l-.09,31.634c-.002.598-.424.838-.944.538L2.708,40.643c-.52-.3-.94-1.027-.938-1.625l.09-31.634c.002-.598.424-.838.944-.538l27.53,15.895ZM30.361,54.857l.086-30.301c.001-.443-.311-.982-.695-1.204L3.381,8.127c-.386-.223-.699-.045-.7.399l-.086,30.301c-.001.443.309.982.695,1.204l26.37,15.225c.385.222.699.045.7-.399" fill="#273b83"/>
</g>
</symbol>
<symbol id="vertical_shadow" viewBox="0 0 40.004 23.099">
<path d="M32.657,22.989L.192,4.245c-.284-.164-.248-.451.08-.64L6.238.157c.328-.19.825-.21,1.109-.046l32.466,18.744c.284.164.248.451-.08.64l-5.966,3.447c-.328.19-.825.21-1.109.046Z" fill="#787fb7"/>
</symbol>
</defs>
<use width="97.002" height="56.297" transform="translate(0 178.802) scale(5.427)" xlink:href="#square_base"/>
<use width="40.004" height="23.099" transform="translate(154.656 268.879) scale(5.427)" xlink:href="#vertical_shadow"/>
<use width="39.535" height="59.61" transform="translate(155.927) scale(5.427)" xlink:href="#vertical_block"/>
<path d="M263.388,170.353c-6.183-8.116-12.793-14.739-19.942-20.19v-11.383c9.206,5.568,17.781,13.232,25.987,23.041-2.023,2.856-3.996,5.641-6.044,8.532ZM229.375,141.818c3.836,1.63,7.687,3.786,11.592,6.47v-10.929c-9.27-5.058-17.852-7.385-26-6.995,1.099,2.815,2.128,5.451,3.194,8.181,3.703.601,7.407,1.655,11.215,3.273ZM193.95,141.462c.588.737,1.035,1.306,1.49,1.865.209.256.433.491.729.824,5.355-4.525,11.946-6.476,19.838-5.85-1.038-2.655-1.983-5.072-3.011-7.702-7.947,1.025-14.235,4.59-19.046,10.863ZM281.493,179.027l-8.495,5.868c2.154,4.459,4.225,8.746,6.402,13.253,3.642-.314,7.334-.632,11.101-.956-2.602-6.352-5.594-12.388-9.009-18.165ZM279.932,176.449c-2.597-4.179-5.424-8.223-8.503-12.151-2.074,2.92-4.074,5.736-6.085,8.567,1.746,2.688,3.427,5.274,5.145,7.918l9.443-4.334ZM190.815,150.451c1.141-1.828,2.423-3.501,3.857-5.011-.58-.719-1.001-1.249-1.429-1.768-.118-.143-.257-.255-.497-.489-1.205,1.805-2.246,3.765-3.133,5.873.41.458.811.923,1.202,1.395ZM264.931,188.688c4.888-3.376,9.777-6.753,14.664-10.129-.054-.091-.109-.182-.163-.272-6.04,2.772-12.075,5.543-18.114,8.315l3.614,2.086ZM285.635,215.622c2.9-1.385,6.664-1.215,10.877.747-1.155-5.297-2.745-10.68-4.819-16.218-3.821.325-7.524.64-11.316.963,1.548,4.137,2.789,8.181,3.767,12.152.521.766,1.02,1.551,1.49,2.356Z" fill="#65cada"/>
</svg>