<svg xmlns="http://www.w3.org/2000/svg" xmlns:xlink="http://www.w3.org/1999/xlink" version="1.1" viewBox="0 0 526.414 465">
<defs>
<linearGradient id="base_circle_gr" x1="0" y1="29.937" x2="103.706" y2="29.937" gradientUnits="userSpaceOnUse">
<stop offset="0" stop-color="#62c6ca"/>
<stop offset=".182" stop-color="#61c1c8"/>
<stop offset=".397" stop-color="#5eb2c4"/>
<stop offset=".628" stop-color="#599bbd"/>
<stop offset=".869" stop-color="#537ab4"/>
<stop offset="1" stop-color="#4f65ae"/>
</linearGradient>
<symbol id="square_2_base" viewBox="0 0 103.706 59.875">
<path d="M1.97,1.099l99.386.208c.454,0,.762.13.891.214l.359,57.054c-.13.081-.429.201-.87.201l-99.386-.208c-.454,0-.762-.13-.891-.214L1.1,1.3c.13-.081.429-.201.865-.201h.005M1.965,0C.88,0-.004.511,0,1.139l.361,57.381c.004.629.898,1.145,1.986,1.147l99.386.208h.007c1.085,0,1.969-.511,1.965-1.139l-.361-57.381c-.004-.629-.898-1.145-1.986-1.147L1.972,0h-.007Z" fill="url(#base_circle_gr)"/>
</symbol>
<linearGradient id="square_side_gr" x1="14822.742" y1="44.757" x2="14752.193" y2="44.757" gradientTransform="translate(14822.935) rotate(-180) scale(1 -1)" gradientUnits="userSpaceOnUse">
<stop offset="0" stop-color="#adc9e8"/>
<stop offset=".023" stop-color="#a9c5e6"/>
<stop offset=".294" stop-color="#88a4d2"/>
<stop offset=".554" stop-color="#718dc4"/>
<stop offset=".795" stop-color="#627ebb"/>
<stop offset="1" stop-color="#5e7ab9"/>
</linearGradient>
<symbol id="square_2_block" viewBox="0 0 70.742 49.809">
<g>
<path d="M.2,39.779c.002.017.003.035.006.052.004.021.01.041.016.061.005.017.009.034.015.051.006.017.015.034.023.051.009.02.017.04.028.059.007.013.016.026.024.038.016.025.032.05.05.075.009.012.02.024.029.035.026.031.053.061.084.09.012.012.024.024.037.036.021.019.043.037.066.055.017.013.033.026.05.039.025.018.051.035.078.052.017.011.033.022.051.033.059.035.123.068.19.099.015.007.031.014.047.02.062.027.127.052.195.075.009.003.017.006.026.009.116.037.238.068.366.091.001,0,.003,0,.004,0,.072.013.147.023.222.031.028.003.056.005.083.007.039.003.079.006.119.008.052.002.104.005.156.005h66.567c.127,0,.252-.009.373-.023.015-.002.029-.003.044-.005.111-.014.218-.034.321-.058.02-.005.04-.01.06-.015.104-.027.204-.058.298-.094.004-.001.008-.002.011-.004.105-.041.203-.088.292-.139.36-.208.584-.494.586-.809l.025,8.958c-.002.315-.226.601-.586.809-.089.051-.186.098-.29.139,0,0-.002,0-.002,0-.004.001-.008.002-.012.004-.072.028-.147.054-.226.076-.023.007-.048.011-.072.018-.02.005-.04.01-.06.015-.025.006-.05.013-.076.019-.063.013-.128.024-.194.034-.017.002-.034.004-.051.006-.014.002-.029.003-.044.005-.032.004-.063.008-.095.011-.063.005-.127.009-.192.01-.028,0-.057.001-.086.001H2.191c-.039,0-.078,0-.117-.001-.013,0-.026-.002-.039-.003-.04-.002-.08-.005-.119-.008-.019-.002-.039-.002-.058-.004-.009,0-.017-.003-.026-.004-.075-.008-.15-.018-.222-.031-.001,0-.003,0-.004,0,0,0,0,0,0,0-.128-.023-.251-.054-.366-.091-.002,0-.004,0-.006-.001-.007-.002-.013-.005-.02-.008-.068-.023-.132-.048-.195-.075-.016-.007-.032-.013-.047-.02-.067-.031-.13-.063-.19-.099-.003-.002-.007-.003-.01-.005-.015-.009-.027-.019-.041-.028-.026-.017-.053-.034-.078-.052-.018-.013-.034-.026-.05-.039-.023-.018-.045-.036-.066-.054-.006-.005-.013-.01-.018-.015-.007-.007-.012-.014-.019-.021-.03-.029-.058-.059-.083-.09-.006-.007-.014-.014-.02-.022-.004-.004-.006-.009-.009-.014-.018-.024-.035-.049-.05-.074-.006-.01-.015-.02-.021-.031-.001-.003-.002-.005-.004-.008-.011-.019-.019-.039-.028-.059-.007-.015-.015-.029-.021-.044,0-.002-.001-.005-.002-.007-.006-.017-.01-.034-.015-.051-.005-.017-.011-.034-.015-.052,0-.003,0-.006-.001-.009-.003-.017-.004-.035-.006-.052-.002-.017-.005-.034-.006-.052,0-.007,0-.014,0-.021l-.025-8.958c0,.025.004.049.006.073Z" fill="url(#square_side_gr)"/>
<path d="M66.787,37.536c.003.567-.795,1.031-1.774,1.031H5.935c-.49,0-.936-.116-1.26-.303-.324-.187-.526-.445-.528-.729l-.193-34.22c-.003-.567.795-1.031,1.774-1.031h59.079c.49,0,.936.116,1.26.303.324.187.526.445.528.729l.193,34.221ZM62.736,37.139c.871,0,1.582-.413,1.577-.917l-.178-31.594c-.001-.252-.181-.481-.468-.647-.288-.166-.684-.269-1.119-.269H8.004c-.869,0-1.58.412-1.577.917l.18,31.593c.001.252.18.481.468.647.288.166.684.269,1.119.269h54.542" fill="#273b83"/>
<path d="M70.742,39.704c.002.631-.885,1.146-1.973,1.146H2.203c-.544,0-1.039-.13-1.398-.337-.36-.208-.584-.494-.586-.809L0,1.146C-.004.516.883.001,1.973,0h66.567c.544,0,1.039.13,1.399.337.359.208.584.494.585.809l.219,38.558ZM65.013,38.567c.979,0,1.777-.464,1.774-1.031l-.192-34.221c-.002-.284-.204-.542-.528-.729-.324-.187-.77-.303-1.259-.303H5.729c-.979,0-1.777.464-1.774,1.031l.193,34.22c.001.284.204.542.528.729.324.187.77.303,1.26.303h59.078" fill="#cbe3f6"/>
<path d="M63.667,3.982c.288.166.467.395.468.647l.178,31.594c.005.503-.706.916-1.577.916H8.194c-.435,0-.831-.104-1.119-.27-.288-.166-.467-.395-.468-.647l-.18-31.593c-.003-.504.708-.917,1.577-.916h54.543c.435,0,.831.103,1.119.269Z" fill="#3e57a5"/>
</g>
</symbol>
<symbol id="square_2_shadow" viewBox="0 0 70.219 40.541">
<path d="M70.219,39.412l-.24-38.136c-.004-.623-.89-1.135-1.97-1.137L1.956,0C.876-.002-.004.506,0,1.129l.24,38.136c.004.623.89,1.135,1.97,1.137l66.053.139c1.079.002,1.96-.506,1.956-1.129Z" fill="#7f89c0"/>
</symbol>
</defs>
<use width="103.706" height="59.875" transform="translate(0 68.603) scale(5.076)" xlink:href="#square_2_base"/>
<use width="70.219" height="40.541" transform="translate(84.991 117.672) scale(5.076)" xlink:href="#square_2_shadow"/>
<use width="70.742" height="49.809" transform="translate(83.664) scale(5.076)" xlink:href="#square_2_block"/>
<path d="M355.76,147.954c2.821-6.689-4.296-13.485-15.921-15.173-10.245-1.477-20.542,1.503-24.788,6.819l-32.308-4.676c8.963-11.14,6.174-24.687-8.357-34.424l24.625-14.217c8.449,3.284,19.973,2.807,27.387-1.474,8.441-4.873,8.391-12.777-.086-17.671-8.502-4.909-22.216-4.952-30.657-.079-7.414,4.28-8.241,10.934-2.553,15.812l-24.625,14.217c-16.843-8.379-40.267-9.996-59.547-4.846l-8-18.436c9.195-2.466,14.369-8.397,11.773-14.311-2.868-6.715-14.676-10.831-26.274-9.195-11.592,1.625-18.636,8.406-15.743,15.107,2.59,5.897,12.011,9.807,22.152,9.531l8.564,19.725c-2.892,1.123-5.649,2.408-8.202,3.882-21.53,12.43-21.404,32.731.285,45.253,21.687,12.521,56.851,12.595,78.38.164,2.533-1.463,4.741-3.042,6.675-4.697l34.529,4.993c-.473,5.858,6.288,11.305,16.539,12.779,11.625,1.681,23.326-2.382,26.153-9.082ZM194.955,69.922c-7.13,1.014-14.363-1.526-16.153-5.66-1.815-4.12,2.532-8.285,9.68-9.288,7.13-1.014,14.369,1.529,16.153,5.66,1.809,4.124-2.531,8.285-9.68,9.289ZM301.582,70.482c5.198-3.001,13.633-2.983,18.869.04,5.211,3.009,5.242,7.878.044,10.879-5.174,2.987-13.601,2.966-18.813-.043-5.236-3.023-5.273-7.889-.1-10.876ZM224.606,125.829c-4.403-2.542-4.427-6.663-.058-9.186,4.37-2.523,11.508-2.509,15.911.033,4.402,2.541,4.427,6.663.058,9.186-4.37,2.523-11.509,2.508-15.911-.033ZM331.56,152.367c-7.143-1.016-11.542-5.198-9.804-9.326,1.738-4.127,8.97-6.626,16.107-5.578,7.136,1.019,11.535,5.195,9.804,9.326-1.739,4.127-8.965,6.622-16.107,5.578Z" fill="#65cada"/>
</svg>