<svg xmlns="http://www.w3.org/2000/svg" xmlns:xlink="http://www.w3.org/1999/xlink" version="1.1" viewBox="0 0 526.399 885">
<defs>
<linearGradient id="base_circle_gr" x1="0" y1="30.533" x2="103.706" y2="30.533" gradientUnits="userSpaceOnUse">
<stop offset="0" stop-color="#62c6ca"/>
<stop offset=".182" stop-color="#61c1c8"/>
<stop offset=".397" stop-color="#5eb2c4"/>
<stop offset=".628" stop-color="#599bbd"/>
<stop offset=".869" stop-color="#537ab4"/>
<stop offset="1" stop-color="#4f65ae"/>
</linearGradient>
<symbol id="base_circle" viewBox="0 0 103.706 61.066">
<path d="M51.854,61.066c-13.736,0-26.649-3.088-36.362-8.697C5.503,46.601,0,38.844,0,30.525S5.503,14.449,15.492,8.681c20.049-11.575,52.669-11.574,72.72.001,9.991,5.768,15.494,13.527,15.494,21.844s-5.503,16.076-15.492,21.843c-9.711,5.609-22.625,8.697-36.359,8.697ZM51.852,1.879c-12.823,0-25.644,2.817-35.406,8.452C7.07,15.745,1.907,22.916,1.907,30.525s5.163,14.78,14.539,20.193c9.427,5.443,22.003,8.441,35.408,8.441s25.98-2.998,35.406-8.441c9.375-5.412,14.539-12.582,14.539-20.192s-5.163-14.78-14.54-20.193C77.497,4.698,64.674,1.879,51.852,1.879Z" fill="url(#base_circle_gr)"/>
</symbol>
<linearGradient id="node_side_gr_3" data-name="node_side_gr 3" x1="13972.444" y1="29.625" x2="14065.087" y2="29.625" gradientTransform="translate(14065.087) rotate(-180) scale(1 -1)" gradientUnits="userSpaceOnUse">
<stop offset="0" stop-color="#4f65ae"/>
<stop offset=".185" stop-color="#5368b0"/>
<stop offset=".404" stop-color="#6274b6"/>
<stop offset=".639" stop-color="#7987c1"/>
<stop offset=".885" stop-color="#9aa2cf"/>
<stop offset="1" stop-color="#adb1d8"/>
</linearGradient>
<symbol id="block_node" viewBox="0 0 92.643 48.136">
<g>
<path d="M3.541.845v9.359c0,6.321,4.176,12.643,12.529,17.466,16.707,9.646,43.793,9.646,60.499,0,8.354-4.823,12.53-11.143,12.531-17.465V.843c6.979,9.701,3.639,21.293-10.026,29.183-18.09,10.443-47.419,10.445-65.509,0C-.098,22.137-3.438,10.546,3.541.845Z" fill="#adb1d8"/>
<path d="M.003,11.114c-.002,6.845,4.518,13.69,13.563,18.912,18.09,10.444,47.419,10.443,65.509,0,9.045-5.223,13.565-12.067,13.564-18.911h.004v10.278c0,6.844-4.522,13.688-13.568,18.91-18.09,10.444-47.419,10.445-65.509.001C4.521,35.081-.001,28.236,0,21.391v-10.277h.003Z" fill="url(#node_side_gr_3)"/>
<path d="M13.303,29.214c18.089,10.445,47.419,10.443,65.509,0,11.078-6.396,15.36-15.225,12.87-23.507,3.03,8.513-1.166,17.713-12.607,24.319-18.09,10.443-47.419,10.445-65.509,0C6.555,25.977,2.273,20.953.697,15.711c1.761,4.947,5.957,9.664,12.606,13.503Z" fill="#fff"/>
<path d="M76.571,23.744c-16.707,9.646-43.793,9.646-60.499,0C7.718,18.92,3.542,12.6,3.541,6.279v3.925c.001,6.321,4.177,12.642,12.531,17.465,16.707,9.646,43.793,9.646,60.499,0,8.354-4.823,12.529-11.145,12.529-17.466v-3.925c0,6.321-4.176,12.642-12.529,17.465Z" fill="#010101" opacity=".15"/>
<path d="M75.792,11.717c-10.041,12.789-24.449,17.45-33.456,19.151,12.235.657,24.867-1.716,34.234-7.124,8.354-4.823,12.529-11.144,12.529-17.465V0c-4.324,2.421-8.912,6.116-13.308,11.717Z" fill="#010101" opacity=".1"/>
<path d="M72.396,24.705c-3.12,1.229-5.451.897-5.206-.743.244-1.639,2.972-3.963,6.092-5.193,3.121-1.228,5.452-.896,5.207.743-.245,1.639-2.973,3.964-6.093,5.193Z" fill="#fff" opacity=".1"/>
<path d="M81.282,18.229c-.734.524-1.653.497-2.051-.062-.399-.558-.127-1.436.608-1.96.735-.524,1.653-.497,2.051.061.399.558.127,1.437-.608,1.961Z" fill="#fff" opacity=".1"/>
</g>
</symbol>
<linearGradient id="node_side_gr_31" data-name="node_side_gr 3" x1="14148.667" y1="45.261" x2="14241.31" y2="45.261" gradientTransform="translate(14241.311) rotate(-180) scale(1 -1)" xlink:href="#node_side_gr_3"/>
<linearGradient id="top_shadow_gr" x1="14148.668" y1="25.573" x2="14194.989" y2="25.573" gradientTransform="translate(14241.311) rotate(-180) scale(1 -1)" gradientUnits="userSpaceOnUse">
<stop offset="0" stop-color="#dfe1f1" stop-opacity=".78"/>
<stop offset=".049" stop-color="#c3c9e4" stop-opacity=".78"/>
<stop offset=".129" stop-color="#9faad3" stop-opacity=".78"/>
<stop offset=".219" stop-color="#8190c5" stop-opacity=".78"/>
<stop offset=".322" stop-color="#6a7dba" stop-opacity=".78"/>
<stop offset=".447" stop-color="#5a6fb3" stop-opacity=".78"/>
<stop offset=".613" stop-color="#5167af" stop-opacity=".78"/>
<stop offset="1" stop-color="#4f65ae" stop-opacity=".78"/>
</linearGradient>
<linearGradient id="node_side_gr_32" data-name="node_side_gr 3" x1="14171.205" y1="24.245" x2="14218.772" y2="24.245" gradientTransform="translate(14241.311) rotate(-180) scale(1 -1)" xlink:href="#node_side_gr_3"/>
<linearGradient id="node_side_gr_33" data-name="node_side_gr 3" x1="14211.002" y1="15.664" x2="14178.976" y2="15.664" gradientTransform="translate(14241.311) rotate(-180) scale(1 -1)" xlink:href="#node_side_gr_3"/>
<symbol id="node_cap" viewBox="0 0 92.644 63.765">
<g>
<path d="M13.567,45.655c18.09,10.444,47.419,10.444,65.509,0,18.09-10.444,18.091-27.377.001-37.821C60.987-2.611,31.658-2.611,13.568,7.833c-18.091,10.445-18.091,27.378-.001,37.822ZM38.01,12.797c6.253-3.61,10.688-2.716,16.943.895,4.3,2.483,8.336,4.765,6.722,7.911-.733,1.428-2.076,2.774-4.029,3.902-6.254,3.61-16.393,3.611-22.646,0-1.954-1.129-3.299-2.476-4.031-3.906-1.612-3.145,2.742-6.319,7.042-8.802Z" fill="#adb1d8"/>
<path d="M13.567,45.655c18.09,10.444,47.419,10.444,65.509,0,9.039-5.219,13.561-12.058,13.568-18.898v10.264c0,6.844-4.522,13.689-13.568,18.911-18.09,10.444-47.419,10.444-65.509,0C4.521,50.71,0,43.866,0,37.021v-10.238c.016,6.832,4.538,13.661,13.566,18.873Z" fill="url(#node_side_gr_31)"/>
<path d="M57.645,25.504c1.953-1.128,3.296-2.474,4.029-3.902,1.615-3.146-2.421-5.427-6.722-7.911-.313-.181-.62-.353-.925-.519h32.222c7.746,7.584,8.453,16.899,2.125,24.8h-42.053v-9.761c4.098,0,8.197-.903,11.324-2.708Z" fill="url(#top_shadow_gr)"/>
<path d="M24.364,18.967c1.16-1.612,2.871-3.122,5.142-4.432,4.115-2.376,9.362-3.697,14.739-3.968-1.956.213-3.976.926-6.235,2.23-4.3,2.482-8.654,5.657-7.042,8.802.733,1.43,2.077,2.777,4.031,3.906,6.253,3.61,16.392,3.61,22.646,0,1.953-1.128,3.296-2.474,4.029-3.902,1.615-3.146-2.421-5.427-6.722-7.911-3.264-1.884-6.032-3.026-8.822-3.177,6.15-.029,12.316,1.31,17.009,4.019,2.27,1.311,3.981,2.821,5.142,4.433h1.824v5.277c-.001,3.514-2.323,7.028-6.967,9.709-9.288,5.362-24.347,5.363-33.634,0-4.644-2.681-6.966-6.195-6.966-9.71v-5.276h1.825Z" fill="url(#node_side_gr_32)"/>
<path d="M29.505,28.677c9.287,5.362,24.346,5.362,33.634,0,9.289-5.363,9.289-14.057.001-19.419-9.287-5.362-24.346-5.362-33.634,0-9.289,5.362-9.289,14.056-.001,19.419ZM38.01,12.797c6.253-3.61,10.688-2.716,16.943.895,4.3,2.483,8.336,4.765,6.722,7.911-.733,1.428-2.076,2.774-4.029,3.902-6.254,3.61-16.393,3.611-22.646,0-1.954-1.129-3.299-2.476-4.031-3.906-1.612-3.145,2.742-6.319,7.042-8.802Z" fill="#cacbe5"/>
<path d="M57.645,17.707c-6.253-3.611-16.392-3.611-22.646,0-1.952,1.127-3.294,2.472-4.028,3.899-1.617-3.147-.275-6.692,4.028-9.176,6.254-3.61,16.393-3.611,22.646,0,4.303,2.484,5.644,6.029,4.027,9.176-.733-1.427-2.075-2.773-4.027-3.899Z" fill="url(#node_side_gr_33)"/>
<path d="M13.304,44.844c18.089,10.444,47.419,10.444,65.509,0,11.078-6.396,15.36-15.225,12.87-23.507,3.03,8.513-1.166,17.713-12.607,24.319-18.09,10.445-47.419,10.445-65.509,0-7.012-4.048-11.293-9.072-12.869-14.315,1.761,4.948,5.957,9.664,12.606,13.503Z" fill="#fff"/>
</g>
</symbol>
</defs>
<use width="103.706" height="61.066" transform="translate(0 500.058) scale(5.076)" xlink:href="#base_circle"/>
<path d="M467.111,169.127c-10.598-14.71-26.226-28.503-46.951-40.468-21.771-12.57-47.02-21.904-73.954-28.02-1.726-12.901-19.628-25.45-37.351-35.681-31.74-18.325-54.254-13.784-85.999,4.541-17.5,10.106-34.122,19.555-35.808,31.133-26.942,6.115-52.198,15.45-73.975,28.024-20.725,11.965-36.353,25.759-46.945,40.472h-16.653v91.13c.003,12.831,3.403,25.661,10.184,38.005h-10.184v91.13c.002,11.921,2.935,23.84,8.788,35.37h-8.788v91.131c.005,29.419,17.837,58.829,53.482,82.385-45.476,42.708-36.182,99.361,27.91,136.361,74.977,43.292,196.536,43.292,271.514,0,64.084-36.999,73.379-93.646,27.904-136.355,35.647-23.558,53.48-52.974,53.48-82.394v-19.923h0v-71.205h-8.784c5.852-11.531,8.784-23.451,8.784-35.373v-19.923h0v-71.204h-10.18c6.78-12.345,10.18-25.176,10.18-38.007v-91.128h-16.653Z" fill="#f4e501"/>
<use width="92.643" height="48.136" transform="translate(31.497 464.099) scale(5.076)" xlink:href="#block_node"/>
<use width="92.643" height="48.136" transform="translate(31.497 337.599) scale(5.076)" xlink:href="#block_node"/>
<use width="92.643" height="48.136" transform="translate(31.497 208.464) scale(5.076)" xlink:href="#block_node"/>
<use width="92.644" height="63.765" transform="translate(31.494) scale(5.076)" xlink:href="#node_cap"/>
</svg>