<svg xmlns="http://www.w3.org/2000/svg" xmlns:xlink="http://www.w3.org/1999/xlink" version="1.1" viewBox="0 0 526.399 470">
<defs>
<linearGradient id="base_circle_gr" x1="0" y1="28.148" x2="97.002" y2="28.148" gradientUnits="userSpaceOnUse">
<stop offset="0" stop-color="#62c6ca"/>
<stop offset=".182" stop-color="#61c1c8"/>
<stop offset=".397" stop-color="#5eb2c4"/>
<stop offset=".628" stop-color="#599bbd"/>
<stop offset=".869" stop-color="#537ab4"/>
<stop offset="1" stop-color="#4f65ae"/>
</linearGradient>
<symbol id="square_base" viewBox="0 0 97.002 56.297">
<path d="M48.413,56.297c-.562,0-1.102-.117-1.514-.355L.706,29.273c-.456-.263-.706-.644-.706-1.072,0-.489.338-.964.927-1.304L46.676.483c1.023-.591,2.528-.648,3.427-.128l46.193,26.669c.455.263.706.644.706,1.072,0,.489-.338.964-.927,1.305l-45.749,26.413c-.553.319-1.249.483-1.913.483ZM47.243,55.345c.683.394,1.937.337,2.739-.128l45.749-26.413c.365-.211.583-.475.583-.708,0-.221-.196-.38-.362-.475L49.759.952c-.681-.394-1.936-.336-2.739.128L1.271,27.493c-.365.211-.583.476-.583.708,0,.221.196.38.361.475l46.193,26.67Z" fill="url(#base_circle_gr)"/>
</symbol>
<linearGradient id="square_side_gr" x1="15070.437" y1="7.089" x2="15019.134" y2="48.228" gradientTransform="translate(15084.507) rotate(-180) scale(1 -1)" gradientUnits="userSpaceOnUse">
<stop offset="0" stop-color="#adc9e8"/>
<stop offset=".023" stop-color="#a9c5e6"/>
<stop offset=".294" stop-color="#88a4d2"/>
<stop offset=".554" stop-color="#718dc4"/>
<stop offset=".795" stop-color="#627ebb"/>
<stop offset="1" stop-color="#5e7ab9"/>
</linearGradient>
<symbol id="square_block" viewBox="0 0 65.841 44.105">
<g>
<path d="M.006,25.097v-6.091l9.922.006L31.943,6.302c.54-.312,1.484-.273,2.107.088l21.917,12.654,9.873.006-.002,6.107h-.006c-.009.19-.122.371-.357.506l-31.578,18.231c-.54.312-1.484.273-2.107-.087L.516,25.751c-.324-.188-.495-.425-.511-.653Z" fill="url(#square_side_gr)"/>
<path d="M33.898,37.802l31.578-18.232c.54-.312.472-.856-.151-1.216L34.05.298c-.624-.36-1.567-.399-2.107-.087L.365,18.442c-.54.312-.472.857.151,1.217l31.274,18.056c.624.36,1.567.399,2.107.087Z" fill="#c1daf2"/>
<path d="M33.787,35.667l27.991-16.16c.479-.277.419-.759-.134-1.078L33.922,2.423c-.553-.319-1.389-.354-1.868-.078L4.063,18.506c-.479.276-.419.759.134,1.079l27.722,16.005c.553.319,1.389.354,1.868.077Z" fill="#224487"/>
<path d="M33.717,34.313l25.716-14.847c.44-.254.385-.698-.123-.991L33.841,3.77c-.508-.293-1.276-.325-1.716-.071L6.408,18.547c-.44.254-.385.698.123.991l25.469,14.704c.508.293,1.276.325,1.716.071Z" fill="#445fa8"/>
</g>
</symbol>
<symbol id="square_shadow" viewBox="0 0 65.84 38.013">
<path d="M31.943,37.802L.365,19.571c-.54-.312-.472-.856.151-1.217L31.79.298c.624-.36,1.567-.399,2.107-.087l31.578,18.231c.54.312.472.857-.151,1.217l-31.274,18.056c-.624.361-1.567.4-2.107.088Z" fill="#7f92ca"/>
</symbol>
</defs>
<use width="97.002" height="56.297" transform="translate(0 123.922) scale(5.427)" xlink:href="#square_base"/>
<use width="65.84" height="38.013" transform="translate(84.553 173.534) scale(5.427)" xlink:href="#square_shadow"/>
<use width="65.841" height="44.105" transform="translate(84.552 77.147) scale(5.427)" xlink:href="#square_block"/>
<path d="M441.848,135.123l-72.903.433-100.449-57.991c-2.926-1.694-8.05-1.481-11.433.472l-101.825,58.787-70.686.42v42.949l.049.022c.154.908.784,1.756,1.926,2.414l171.364,98.937c2.932,1.691,8.05,1.481,11.434-.47l169.721-97.992c1.549-.889,2.433-1.991,2.692-3.087l.111-.062v-44.832Z" fill="#65cada" opacity=".4"/>
<use width="65.841" height="44.105" transform="translate(84.552) scale(5.427)" xlink:href="#square_block"/>
<path d="M258.61,91.758l-17.029-9.829,9.3-5.369,17.024,9.829-9.295,5.369ZM280.954,84.998l-17.03,9.832,9.3,5.369,17.031-9.832-9.301-5.369ZM245.445,88.621l-9.301,5.369,9.301,5.368,9.301-5.368-9.301-5.369ZM260.066,97.062l-9.301,5.369,26.814,15.477,9.295-5.368-26.808-15.478Z" fill="#65cada"/>
</svg>