<svg xmlns="http://www.w3.org/2000/svg" xmlns:xlink="http://www.w3.org/1999/xlink" version="1.1" viewBox="0 0 526.399 630">
<defs>
<linearGradient id="base_circle_gr" x1="0" y1="30.533" x2="103.706" y2="30.533" gradientUnits="userSpaceOnUse">
<stop offset="0" stop-color="#62c6ca"/>
<stop offset=".182" stop-color="#61c1c8"/>
<stop offset=".397" stop-color="#5eb2c4"/>
<stop offset=".628" stop-color="#599bbd"/>
<stop offset=".869" stop-color="#537ab4"/>
<stop offset="1" stop-color="#4f65ae"/>
</linearGradient>
<symbol id="base_circle" viewBox="0 0 103.706 61.066">
<path d="M51.854,61.066c-13.736,0-26.649-3.088-36.362-8.697C5.503,46.601,0,38.844,0,30.525S5.503,14.449,15.492,8.681c20.049-11.575,52.669-11.574,72.72.001,9.991,5.768,15.494,13.527,15.494,21.844s-5.503,16.076-15.492,21.843c-9.711,5.609-22.625,8.697-36.359,8.697ZM51.852,1.879c-12.823,0-25.644,2.817-35.406,8.452C7.07,15.745,1.907,22.916,1.907,30.525s5.163,14.78,14.539,20.193c9.427,5.443,22.003,8.441,35.408,8.441s25.98-2.998,35.406-8.441c9.375-5.412,14.539-12.582,14.539-20.192s-5.163-14.78-14.54-20.193C77.497,4.698,64.674,1.879,51.852,1.879Z" fill="url(#base_circle_gr)"/>
</symbol>
<linearGradient id="node_side_gr_3" data-name="node_side_gr 3" x1="13972.444" y1="29.625" x2="14065.087" y2="29.625" gradientTransform="translate(14065.087) rotate(-180) scale(1 -1)" gradientUnits="userSpaceOnUse">
<stop offset="0" stop-color="#4f65ae"/>
<stop offset=".185" stop-color="#5368b0"/>
<stop offset=".404" stop-color="#6274b6"/>
<stop offset=".639" stop-color="#7987c1"/>
<stop offset=".885" stop-color="#9aa2cf"/>
<stop offset="1" stop-color="#adb1d8"/>
</linearGradient>
<symbol id="block_node" viewBox="0 0 92.643 48.136">
<g>
<path d="M3.541.845v9.359c0,6.321,4.176,12.643,12.529,17.466,16.707,9.646,43.793,9.646,60.499,0,8.354-4.823,12.53-11.143,12.531-17.465V.843c6.979,9.701,3.639,21.293-10.026,29.183-18.09,10.443-47.419,10.445-65.509,0C-.098,22.137-3.438,10.546,3.541.845Z" fill="#adb1d8"/>
<path d="M.003,11.114c-.002,6.845,4.518,13.69,13.563,18.912,18.09,10.444,47.419,10.443,65.509,0,9.045-5.223,13.565-12.067,13.564-18.911h.004v10.278c0,6.844-4.522,13.688-13.568,18.91-18.09,10.444-47.419,10.445-65.509.001C4.521,35.081-.001,28.236,0,21.391v-10.277h.003Z" fill="url(#node_side_gr_3)"/>
<path d="M13.303,29.214c18.089,10.445,47.419,10.443,65.509,0,11.078-6.396,15.36-15.225,12.87-23.507,3.03,8.513-1.166,17.713-12.607,24.319-18.09,10.443-47.419,10.445-65.509,0C6.555,25.977,2.273,20.953.697,15.711c1.761,4.947,5.957,9.664,12.606,13.503Z" fill="#fff"/>
<path d="M76.571,23.744c-16.707,9.646-43.793,9.646-60.499,0C7.718,18.92,3.542,12.6,3.541,6.279v3.925c.001,6.321,4.177,12.642,12.531,17.465,16.707,9.646,43.793,9.646,60.499,0,8.354-4.823,12.529-11.145,12.529-17.466v-3.925c0,6.321-4.176,12.642-12.529,17.465Z" fill="#010101" opacity=".15"/>
<path d="M75.792,11.717c-10.041,12.789-24.449,17.45-33.456,19.151,12.235.657,24.867-1.716,34.234-7.124,8.354-4.823,12.529-11.144,12.529-17.465V0c-4.324,2.421-8.912,6.116-13.308,11.717Z" fill="#010101" opacity=".1"/>
<path d="M72.396,24.705c-3.12,1.229-5.451.897-5.206-.743.244-1.639,2.972-3.963,6.092-5.193,3.121-1.228,5.452-.896,5.207.743-.245,1.639-2.973,3.964-6.093,5.193Z" fill="#fff" opacity=".1"/>
<path d="M81.282,18.229c-.734.524-1.653.497-2.051-.062-.399-.558-.127-1.436.608-1.96.735-.524,1.653-.497,2.051.061.399.558.127,1.437-.608,1.961Z" fill="#fff" opacity=".1"/>
</g>
</symbol>
<linearGradient id="node_side_gr_31" data-name="node_side_gr 3" x1="498.322" y1="229.741" x2="28.077" y2="229.741" gradientTransform="matrix(1,0,0,1,0,0)" xlink:href="#node_side_gr_3"/>
</defs>
<use width="103.706" height="61.066" transform="translate(0 243.055) scale(5.076)" xlink:href="#base_circle"/>
<path d="M471.566,166.502h-7.869c-10.598-14.711-26.226-28.503-46.951-40.469-21.771-12.57-47.02-21.904-73.953-28.02-1.726-12.902-19.628-25.45-37.351-35.681-31.74-18.326-2.703,12.82-85.999,4.541-83.296-8.278-88.007,46.583-109.784,59.156-20.725,11.966-36.353,25.759-46.945,40.472h-16.653v91.13c.005,29.418,17.837,58.829,53.481,82.385-45.476,42.709-36.182,99.361,27.91,136.362,74.977,43.293,196.536,43.293,271.514,0,64.084-36.999,73.379-93.646,27.905-136.356,35.647-23.557,53.48-52.974,53.48-82.393v-19.923h0v-71.205h-8.784Z" fill="#435ea9"/>
<use width="92.643" height="48.136" transform="translate(28.079 205.836) scale(5.076)" xlink:href="#block_node"/>
<path d="M429.46,231.74c-91.822,53.014-240.692,53.014-332.514-.002-45.881-26.489-68.837-61.203-68.868-95.921v52.098c0,34.742,22.954,69.482,68.868,95.989,91.822,53.016,240.693,53.016,332.514.003,45.915-26.506,68.867-61.25,68.861-95.995v-51.967c-.084,34.677-23.035,69.339-68.861,95.795Z" fill="url(#node_side_gr_31)"/>
<path d="M429.451,39.76c-91.821-53.014-240.692-53.014-332.514,0-91.822,53.013-91.816,138.964.006,191.977,91.822,53.016,240.693,53.016,332.514.002,91.822-53.01,91.822-138.964-.007-191.98ZM364.153,191.954c-.179.514-.22,1.042-.325,1.564-.267.154-.534.308-.801.462-5.047.491-10.08,1.044-15.142,1.461-29.775,2.455-59.228,2.115-88.111-2.568-24.883-4.034-46.553-11.189-64.117-22.118-18.372-11.431-29.175-25.141-34.383-40.434-5.762-16.921-4.874-33.891,1.128-50.878.182-.514.228-1.041.338-1.563.267-.154.534-.308.801-.462,6.256-.578,12.494-1.26,18.772-1.715,28.702-2.079,57.045-1.51,84.769,3.105,24.463,4.072,45.789,11.163,63.151,21.889,18.514,11.439,29.457,25.177,34.768,40.519,5.837,16.861,5.065,33.787-.847,50.737ZM279.484,92.242c-31.469-8.525-64.791-9.411-98.953-5.621-1.811.201-2.371.733-2.707,1.69-3.643,10.373-4.503,20.787-2.488,31.232,3.411,17.683,14.83,33.183,34.799,44.86,11.465,6.619,23.788,11.64,35.757,14.824,31.872,8.478,65.285,9.585,99.748,5.789,2.083-.229,2.415-.92,2.737-1.861,5.091-14.877,5.036-29.655-1.828-44.183-10.12-21.418-32.229-37.293-67.063-46.73ZM300.573,157.619c-21.229,12.196-55.33,12.33-76.056.299-20.689-12.01-20.203-31.68,1.084-43.911,21.24-12.204,55.29-12.338,76.043-.299,20.692,12.004,20.211,31.684-1.072,43.911Z" fill="#b0b4db"/>
<path d="M430.795,227.621c-91.816,53.013-240.692,53.01-332.514-.003-56.232-32.467-77.964-77.279-65.328-119.321-15.378,43.214,5.919,89.912,63.992,123.44,91.822,53.016,240.693,53.016,332.514.002,35.591-20.549,57.323-46.048,65.322-72.659-8.94,25.115-30.237,49.055-63.987,68.54Z" fill="#fff"/>
</svg>